<?xml version="1.0" encoding="utf-8"?>
<!-- Generator: Adobe Illustrator 25.4.1, SVG Export Plug-In . SVG Version: 6.00 Build 0)  -->
<svg version="1.1" id="Layer_1" xmlns="http://www.w3.org/2000/svg" xmlns:xlink="http://www.w3.org/1999/xlink" x="0px" y="0px"
	 viewBox="0 0 140 140" style="enable-background:new 0 0 140 140;" xml:space="preserve">
<style type="text/css">
	.st0{fill:#E51D3A;}
	.st1{fill:#332318;}
	.st2{fill:#67ABD7;}
	.st3{fill:#E40138;}
	.st4{fill:#FFFFFF;}
	.st5{font-family:'Gilroy-ExtraBold';}
	.st6{font-size:63.1717px;}
</style>
<g>
	<g>
		<rect x="65.6" y="1.2" class="st3" width="6.3" height="138.7"/>
	</g>
	<g>
		<rect x="65.6" y="0.1" class="st3" width="6.3" height="139.8"/>
	</g>
	<g>
		<rect x="-1.1" y="66.8" transform="matrix(0.8717 -0.49 0.49 0.8717 -25.4775 42.6753)" class="st3" width="139.8" height="6.3"/>
	</g>
	<g>
		<rect x="65.6" y="0.1" transform="matrix(0.49 -0.8717 0.8717 0.49 -25.9469 95.6504)" class="st3" width="6.3" height="139.8"/>
	</g>
	<g>
		<g>
			
				<rect x="77.3" y="97.1" transform="matrix(0.5336 -0.8457 0.8457 0.5336 -55.8422 119.5074)" class="st3" width="6.3" height="26.5"/>
		</g>
		<g>
			
				<rect x="74.1" y="114.2" transform="matrix(0.5246 -0.8513 0.8513 0.5246 -68.7727 124.7518)" class="st3" width="6.3" height="19.5"/>
		</g>
		<g>
			
				<rect x="43.9" y="107.2" transform="matrix(0.8457 -0.5336 0.5336 0.8457 -50.0947 47.507)" class="st3" width="26.5" height="6.3"/>
		</g>
		<g>
			
				<rect x="50.5" y="120.8" transform="matrix(0.8513 -0.5246 0.5246 0.8513 -56.0777 50.0225)" class="st3" width="19.5" height="6.3"/>
		</g>
	</g>
	<g>
		<g>
			
				<rect x="53.9" y="14.2" transform="matrix(0.5336 -0.8457 0.8457 0.5336 3.3914 61.117)" class="st3" width="6.3" height="26.5"/>
		</g>
		<g>
			
				<rect x="57.1" y="4.1" transform="matrix(0.5246 -0.8513 0.8513 0.5246 16.7853 57.883)" class="st3" width="6.3" height="19.5"/>
		</g>
		<g>
			
				<rect x="67.2" y="24.3" transform="matrix(0.8457 -0.5336 0.5336 0.8457 -2.2562 47.1635)" class="st3" width="26.5" height="6.3"/>
		</g>
		<g>
			
				<rect x="67.5" y="10.7" transform="matrix(0.8513 -0.5246 0.5246 0.8513 4.1966 42.6322)" class="st3" width="19.5" height="6.3"/>
		</g>
	</g>
	<g>
		<g>
			
				<rect x="85.6" y="34.9" transform="matrix(3.927904e-02 -0.9992 0.9992 3.927904e-02 56.876 135.3733)" class="st3" width="26.5" height="6.3"/>
		</g>
		<g>
			
				<rect x="102.4" y="30.8" transform="matrix(2.864651e-02 -0.9996 0.9996 2.864651e-02 74.9305 145.1473)" class="st3" width="19.5" height="6.3"/>
		</g>
		<g>
			
				<rect x="107.3" y="45.1" transform="matrix(0.4656 -0.885 0.885 0.4656 7.4462 128.9496)" class="st3" width="6.3" height="26.5"/>
		</g>
		<g>
			<rect x="117.5" y="39.1" transform="matrix(0.475 -0.88 0.88 0.475 20.4016 131.8475)" class="st3" width="6.3" height="19.5"/>
		</g>
	</g>
	<g>
		<g>
			
				<rect x="25.5" y="96.6" transform="matrix(3.927904e-02 -0.9992 0.9992 3.927904e-02 -62.4974 134.5168)" class="st3" width="26.5" height="6.3"/>
		</g>
		<g>
			
				<rect x="15.6" y="100.7" transform="matrix(2.864651e-02 -0.9996 0.9996 2.864651e-02 -79.1393 126.2585)" class="st3" width="19.5" height="6.3"/>
		</g>
		<g>
			
				<rect x="23.9" y="66.3" transform="matrix(0.4656 -0.885 0.885 0.4656 -55.9578 66.4475)" class="st3" width="6.3" height="26.5"/>
		</g>
		<g>
			<rect x="13.7" y="79.3" transform="matrix(0.475 -0.88 0.88 0.475 -69.513 61.576)" class="st3" width="6.3" height="19.5"/>
		</g>
	</g>
	<g>
		<g>
			
				<rect x="13.8" y="55.1" transform="matrix(0.885 -0.4656 0.4656 0.885 -24.0389 19.2974)" class="st3" width="26.5" height="6.3"/>
		</g>
		<g>
			<rect x="7.1" y="45.7" transform="matrix(0.88 -0.4749 0.4749 0.88 -21.1685 13.8595)" class="st3" width="19.5" height="6.3"/>
		</g>
		<g>
			
				<rect x="35.5" y="24.9" transform="matrix(0.9992 -3.924792e-02 3.924792e-02 0.9992 -1.4659 1.5485)" class="st3" width="6.3" height="26.5"/>
		</g>
		<g>
			
				<rect x="22.2" y="24.2" transform="matrix(0.9996 -2.866086e-02 2.866086e-02 0.9996 -0.9646 0.7418)" class="st3" width="6.3" height="19.5"/>
		</g>
	</g>
	<g>
		<g>
			
				<rect x="97.3" y="76.4" transform="matrix(0.885 -0.4656 0.4656 0.885 -24.335 60.5999)" class="st3" width="26.5" height="6.3"/>
		</g>
		<g>
			
				<rect x="110.9" y="85.9" transform="matrix(0.88 -0.4749 0.4749 0.88 -27.8084 68.0086)" class="st3" width="19.5" height="6.3"/>
		</g>
		<g>
			
				<rect x="95.7" y="86.5" transform="matrix(0.9992 -3.926091e-02 3.926091e-02 0.9992 -3.8404 3.9574)" class="st3" width="6.3" height="26.5"/>
		</g>
		<g>
			
				<rect x="109" y="94.1" transform="matrix(0.9996 -2.867846e-02 2.867846e-02 0.9996 -2.9321 3.259)" class="st3" width="6.3" height="19.5"/>
		</g>
	</g>
	<polygon class="st3" points="13.8,76.2 13.8,61.7 40.2,51.5 35,25 47.6,17.7 67.3,34.9 89.9,17.7 102.5,25 98.8,49.3 123.7,61.7 
		123.7,76.2 98.8,85.8 102.5,112.9 89.9,120.1 70,103 47.6,120.1 35,112.9 38.7,86.4 	"/>
</g>
<text transform="matrix(1 0 0 1 44.218 91.5246)" class="st4 st5 st6">%</text>
</svg>
